<?xml version="1.0" standalone="no"?>
<!DOCTYPE svg PUBLIC "-//W3C//DTD SVG 20010904//EN"
 "http://www.w3.org/TR/2001/REC-SVG-20010904/DTD/svg10.dtd">
<svg version="1.0" xmlns="http://www.w3.org/2000/svg"
 width="3490.000000pt" height="442.000000pt" viewBox="0 0 3490.000000 442.000000"
 preserveAspectRatio="xMidYMid meet">

<g transform="translate(0.000000,442.000000) scale(0.100000,-0.100000)"
fill="#ffff
" stroke="none">
<path d="M3010 4409 c-331 -12 -542 -27 -695 -50 -574 -83 -1116 -310 -1523
-639 -119 -96 -317 -297 -401 -408 -332 -439 -457 -956 -350 -1451 62 -283
206 -574 404 -811 97 -116 298 -307 418 -396 435 -324 976 -535 1557 -609 69
-8 233 -20 365 -25 132 -5 267 -12 301 -14 95 -8 412 12 568 35 669 97 1248
373 1676 797 l134 134 -33 27 -33 28 -92 -95 c-856 -887 -2418 -1105 -3604
-503 -482 245 -850 602 -1057 1026 -177 364 -222 777 -124 1164 191 760 889
1376 1825 1610 258 64 461 90 779 98 399 10 739 -33 1045 -133 106 -35 309
-128 388 -178 l43 -27 -104 -63 c-260 -156 -489 -381 -648 -636 -116 -188
-214 -424 -255 -620 -27 -124 -25 -311 4 -413 65 -229 209 -375 442 -449 65
-20 94 -23 215 -22 121 1 152 4 228 27 158 48 276 117 390 226 129 124 216
267 275 451 47 150 57 225 56 430 -3 412 -108 709 -338 955 -38 40 -52 61 -44
67 24 14 235 68 343 87 376 66 849 52 1325 -40 1098 -212 2344 -772 3935
-1769 585 -367 887 -539 1365 -779 1839 -926 3738 -1397 5401 -1340 149 5 369
5 518 0 1663 -57 3562 414 5401 1340 478 240 780 412 1365 779 1591 997 2837
1557 3935 1769 476 92 949 106 1325 40 108 -19 319 -73 343 -87 8 -6 -6 -27
-44 -67 -231 -246 -335 -542 -338 -955 -1 -205 9 -280 56 -430 59 -184 146
-327 275 -451 114 -109 232 -178 390 -226 76 -23 107 -26 228 -27 121 -1 150
2 215 22 233 74 377 220 442 449 29 102 31 289 4 413 -41 196 -139 432 -255
620 -159 255 -388 480 -648 636 l-104 63 43 27 c79 50 282 143 388 178 306
100 646 143 1045 133 318 -8 521 -34 779 -98 770 -193 1392 -650 1685 -1239
73 -146 104 -228 140 -371 214 -850 -254 -1719 -1181 -2190 -1186 -602 -2748
-384 -3604 503 l-92 95 -33 -28 -33 -27 134 -134 c428 -424 1007 -700 1676
-797 156 -23 473 -43 568 -35 34 2 169 9 301 14 132 5 296 17 365 25 581 74
1122 285 1557 609 120 89 321 280 418 396 198 237 342 528 404 812 106 492
-20 1013 -350 1450 -84 111 -282 312 -401 408 -483 390 -1127 626 -1828 670
-488 30 -831 29 -1080 -5 -357 -50 -692 -162 -918 -308 l-69 -45 -120 48
c-207 83 -441 141 -698 171 -139 17 -590 17 -745 1 -814 -88 -1672 -363 -2675
-857 -529 -261 -978 -518 -1725 -987 -699 -439 -1465 -834 -2217 -1144 -903
-371 -1835 -640 -2718 -783 -290 -48 -283 -47 -173 -2 899 370 1522 1018 1640
1705 25 151 21 379 -11 517 -86 375 -289 686 -606 930 -181 139 -412 243 -655
296 -119 25 -420 26 -538 0 -339 -73 -648 -265 -856 -532 -114 -145 -179 -276
-227 -455 -20 -73 -23 -110 -24 -260 0 -198 11 -254 70 -377 45 -92 72 -114
123 -102 48 10 72 41 72 91 0 45 -39 94 -68 85 -9 -2 -23 -6 -31 -8 -40 -11
-39 284 3 462 66 285 205 531 422 746 85 85 119 110 191 147 113 56 240 101
350 123 131 25 376 23 510 -5 596 -127 1077 -609 1188 -1192 27 -137 25 -362
-3 -496 -59 -277 -147 -445 -363 -689 -456 -518 -1248 -894 -2179 -1034 -372
-56 -652 -76 -852 -61 -1339 99 -2324 534 -2865 1265 -113 151 -180 307 -225
519 -28 134 -30 359 -3 496 111 583 592 1065 1188 1192 134 28 379 30 510 5
110 -22 237 -67 350 -123 72 -37 106 -62 191 -147 217 -215 356 -461 422 -746
42 -178 43 -473 3 -462 -8 2 -22 6 -31 8 -29 9 -68 -40 -68 -85 0 -50 24 -81
72 -91 51 -12 78 10 123 102 59 123 70 179 70 377 -1 191 -13 262 -76 420
-158 396 -571 728 -1031 827 -118 26 -419 25 -538 0 -643 -139 -1129 -618
-1266 -1247 -26 -120 -26 -419 0 -540 120 -556 551 -1076 1201 -1450 125 -72
291 -153 433 -210 53 -22 93 -40 87 -40 -5 0 -82 12 -170 25 -1255 197 -2508
609 -3765 1236 -501 251 -888 470 -1399 793 -1677 1062 -3047 1627 -4261 1758
-155 16 -606 16 -745 -1 -257 -30 -491 -88 -698 -171 l-120 -48 -69 45 c-272
176 -709 304 -1123 328 -205 12 -275 12 -485 4z m1779 -577 c164 -166 260
-357 307 -607 15 -79 19 -146 19 -320 0 -195 -3 -230 -23 -310 -94 -370 -342
-634 -670 -711 -90 -22 -258 -21 -342 1 -154 40 -283 140 -353 272 -47 91 -67
179 -67 309 0 163 33 307 116 502 168 392 447 690 822 878 59 30 111 54 116
54 5 0 39 -31 75 -68z m25513 14 c375 -188 654 -486 822 -878 83 -195 116
-339 116 -502 0 -130 -20 -218 -67 -309 -70 -132 -199 -232 -353 -272 -84 -22
-252 -23 -342 -1 -270 63 -504 270 -614 541 -67 163 -79 235 -79 480 0 174 4
241 19 320 47 250 143 441 307 607 36 37 70 68 75 68 5 0 57 -24 116 -54z"/>
</g>
</svg>
